<?xml version="1.0" encoding="UTF-8" standalone="no"?>
<!DOCTYPE svg PUBLIC "-//W3C//DTD SVG 1.1//EN" "http://www.w3.org/Graphics/SVG/1.1/DTD/svg11.dtd">
<svg width="100%" height="100%" viewBox="0 0 1024 1024" version="1.1" xmlns="http://www.w3.org/2000/svg" xmlns:xlink="http://www.w3.org/1999/xlink" xml:space="preserve" xmlns:serif="http://www.serif.com/" style="fill-rule:evenodd;clip-rule:evenodd;stroke-linejoin:round;stroke-miterlimit:2;">
    <g transform="matrix(1.75128,0,0,1.75128,512.782,512.329)">
        <g transform="matrix(1,0,0,1,-219.268,-219.268)">
            <clipPath id="_clip1">
                <rect x="0" y="0" width="438.536" height="438.536"/>
            </clipPath>
            <g clip-path="url(#_clip1)">
                <g>
                    <path d="M414.41,24.123C398.333,8.042 378.963,0 356.315,0L82.228,0C59.58,0 40.21,8.042 24.126,24.123C8.045,40.207 0.003,59.576 0.003,82.225L0.003,356.309C0.003,378.956 8.045,398.327 24.126,414.411C40.21,430.495 59.58,438.537 82.228,438.537L356.312,438.537C378.96,438.537 398.33,430.495 414.407,414.411C430.491,398.327 438.533,378.957 438.533,356.309L438.533,82.225C438.532,59.576 430.49,40.204 414.41,24.123ZM387.433,177.295L286.938,277.797C283.318,281.411 279.04,283.218 274.091,283.225C271.812,283.225 269.519,282.746 267.239,281.795C259.622,278.557 255.816,272.944 255.816,264.95L255.816,219.27C229.171,219.27 207.849,221.503 191.863,225.978C175.876,230.452 163.505,237.634 154.748,247.531C134.571,270.186 128.67,315.194 137.045,382.577C137.617,387.142 135.808,390.284 131.619,391.995C130.478,392.57 129.241,392.85 127.91,392.85C125.052,392.85 122.674,391.706 120.771,389.421C88.986,346.979 73.092,308.527 73.092,274.08C73.092,262.657 73.571,252.143 74.521,242.527C75.471,232.922 77.517,222.302 80.657,210.698C83.797,199.085 88.03,188.712 93.36,179.575C98.69,170.443 105.972,161.357 115.204,152.312C124.433,143.267 135.284,135.75 147.75,129.755C160.215,123.759 175.68,118.909 194.144,115.194C212.605,111.484 233.162,109.626 255.816,109.626L255.816,63.948C255.816,55.952 259.622,50.338 267.233,47.101C274.659,43.871 281.222,45.198 286.937,51.098L387.432,151.598C391.053,155.215 392.86,159.499 392.86,164.448C392.86,169.397 391.054,173.68 387.433,177.295Z" style="fill:rgb(95,95,95);fill-rule:nonzero;"/>
                </g>
            </g>
        </g>
    </g>
</svg>
