<?xml version="1.0" encoding="UTF-8" standalone="no"?>
<!DOCTYPE svg PUBLIC "-//W3C//DTD SVG 1.1//EN" "http://www.w3.org/Graphics/SVG/1.1/DTD/svg11.dtd">
<svg width="100%" height="100%" viewBox="0 0 1024 1024" version="1.1" xmlns="http://www.w3.org/2000/svg" xmlns:xlink="http://www.w3.org/1999/xlink" xml:space="preserve" xmlns:serif="http://www.serif.com/" style="fill-rule:evenodd;clip-rule:evenodd;stroke-linejoin:round;stroke-miterlimit:2;">
    <g transform="matrix(1.64824,0,0,1.64824,511.744,512.362)">
        <g transform="matrix(1,0,0,1,-232.976,-232.976)">
            <clipPath id="_clip1">
                <rect x="0" y="0" width="465.951" height="465.951"/>
            </clipPath>
            <g clip-path="url(#_clip1)">
                <g>
                    <path d="M441.962,284.364L382.573,224.981C366.589,208.996 347.177,200.999 324.335,200.999C301.112,200.999 281.322,209.374 264.95,226.124L239.825,200.999C256.576,184.631 264.95,164.743 264.95,141.328C264.95,118.487 257.052,99.171 241.252,83.37L182.437,24.273C166.639,8.095 147.225,0.003 124.195,0.003C101.354,0.003 82.035,7.905 66.237,23.703L24.267,65.386C8.088,81.188 0,100.504 0,123.343C0,146.184 7.996,165.601 23.982,181.588L83.367,240.971C99.357,256.959 118.771,264.953 141.612,264.953C164.831,264.953 184.627,256.579 200.995,239.827L226.12,264.953C209.37,281.324 200.995,301.211 200.995,324.625C200.995,347.468 208.893,366.779 224.692,382.583L283.512,441.677C299.313,457.854 318.72,465.947 341.75,465.947C364.594,465.947 383.904,458.05 399.708,442.249L441.681,400.567C457.858,384.763 465.952,365.449 465.952,342.609C465.947,319.771 457.953,300.359 441.962,284.364ZM200.999,162.178C200.428,161.607 198.665,159.8 195.719,156.754C192.771,153.708 190.724,151.662 189.583,150.614C188.44,149.567 186.631,148.14 184.157,146.328C181.679,144.519 179.255,143.284 176.877,142.617C174.497,141.951 171.879,141.619 169.023,141.619C161.412,141.619 154.939,144.285 149.609,149.612C144.279,154.939 141.617,161.411 141.617,169.026C141.617,171.879 141.949,174.497 142.615,176.877C143.281,179.259 144.518,181.685 146.326,184.158C148.135,186.632 149.563,188.441 150.609,189.584C151.653,190.725 153.699,192.772 156.745,195.723C159.791,198.673 161.598,200.432 162.169,201.004C156.458,206.902 149.606,209.852 141.614,209.852C133.81,209.852 127.337,207.284 122.2,202.147L62.81,142.761C57.483,137.431 54.818,130.959 54.818,123.344C54.818,115.923 57.48,109.548 62.81,104.218L104.781,62.531C110.304,57.391 116.772,54.826 124.198,54.826C131.809,54.826 138.281,57.489 143.612,62.819L202.425,121.916C207.755,127.246 210.417,133.717 210.417,141.33C210.418,149.321 207.278,156.27 200.999,162.178ZM403.147,361.732L361.174,403.418C355.842,408.363 349.374,410.841 341.756,410.841C333.947,410.841 327.486,408.275 322.346,403.134L263.533,344.033C258.202,338.701 255.543,332.233 255.543,324.623C255.543,316.629 258.681,309.682 264.964,303.782C265.539,304.349 267.298,306.163 270.248,309.202C273.198,312.248 275.244,314.295 276.388,315.342C277.531,316.393 279.337,317.82 281.808,319.63C284.286,321.441 286.708,322.679 289.09,323.343C291.472,324.01 294.087,324.342 296.941,324.342C304.559,324.342 311.027,321.677 316.359,316.348C321.683,311.02 324.353,304.548 324.353,296.938C324.353,294.084 324.014,291.466 323.353,289.087C322.683,286.705 321.451,284.278 319.633,281.805C317.822,279.334 316.403,277.521 315.352,276.377C314.305,275.241 312.258,273.194 309.213,270.237C306.167,267.288 304.36,265.528 303.785,264.961C309.5,258.869 316.351,255.823 324.339,255.823C331.956,255.823 338.424,258.486 343.749,263.817L403.137,323.199C408.469,328.531 411.132,335.006 411.132,342.616C411.132,350.032 408.469,356.415 403.147,361.732Z" style="fill:rgb(95,95,95);fill-rule:nonzero;"/>
                </g>
            </g>
        </g>
    </g>
</svg>
