<?xml version="1.0" encoding="UTF-8" standalone="no"?>
<!DOCTYPE svg PUBLIC "-//W3C//DTD SVG 1.1//EN" "http://www.w3.org/Graphics/SVG/1.1/DTD/svg11.dtd">
<svg width="100%" height="100%" viewBox="0 0 1024 1024" version="1.1" xmlns="http://www.w3.org/2000/svg" xmlns:xlink="http://www.w3.org/1999/xlink" xml:space="preserve" xmlns:serif="http://www.serif.com/" style="fill-rule:evenodd;clip-rule:evenodd;stroke-linejoin:round;stroke-miterlimit:2;">
    <g transform="matrix(1.61656,0,0,1.61656,511.517,512.637)">
        <g transform="matrix(1,0,0,1,-237.541,-237.541)">
            <clipPath id="_clip1">
                <rect x="0" y="0" width="475.082" height="475.082"/>
            </clipPath>
            <g clip-path="url(#_clip1)">
                <g>
                    <path d="M461.667,31.691C452.718,22.746 441.969,18.274 429.402,18.274L45.682,18.274C33.12,18.274 22.365,22.745 13.418,31.691C4.473,40.638 0,51.389 0,63.952L0,411.125C0,423.691 4.473,434.443 13.418,443.389C22.365,452.335 33.119,456.808 45.682,456.808L429.402,456.808C441.968,456.808 452.717,452.335 461.667,443.389C470.612,434.444 475.082,423.692 475.082,411.125L475.082,63.952C475.082,51.389 470.612,40.638 461.667,31.691ZM219.272,420.266L45.682,420.266C43.208,420.266 41.067,419.359 39.259,417.559C37.45,415.748 36.547,413.61 36.547,411.132L36.547,91.367L219.272,91.367L219.272,420.266ZM438.536,411.125C438.536,413.603 437.633,415.745 435.826,417.552C434.013,419.359 431.877,420.262 429.399,420.262L255.813,420.262L255.813,91.36L438.542,91.36L438.542,411.125L438.536,411.125Z" style="fill:rgb(95,95,95);fill-rule:nonzero;"/>
                </g>
            </g>
        </g>
    </g>
</svg>
