<?xml version="1.0" encoding="UTF-8" standalone="no"?>
<!DOCTYPE svg PUBLIC "-//W3C//DTD SVG 1.1//EN" "http://www.w3.org/Graphics/SVG/1.1/DTD/svg11.dtd">
<svg width="100%" height="100%" viewBox="0 0 1024 1024" version="1.1" xmlns="http://www.w3.org/2000/svg" xmlns:xlink="http://www.w3.org/1999/xlink" xml:space="preserve" xmlns:serif="http://www.serif.com/" style="fill-rule:evenodd;clip-rule:evenodd;stroke-linejoin:round;stroke-miterlimit:2;">
    <g transform="matrix(1.75129,0,0,1.75129,511.561,511.061)">
        <g transform="matrix(1,0,0,1,-219.267,-219.267)">
            <clipPath id="_clip1">
                <rect x="0" y="0" width="438.533" height="438.533"/>
            </clipPath>
            <g clip-path="url(#_clip1)">
                <g>
                    <g>
                        <path d="M409.133,109.203C389.525,75.611 362.928,49.014 329.335,29.407C295.736,9.801 259.058,0 219.273,0C179.492,0 142.803,9.801 109.21,29.407C75.615,49.011 49.018,75.608 29.41,109.203C9.801,142.8 0,179.489 0,219.267C0,259.047 9.804,295.73 29.407,329.329C49.014,362.921 75.611,389.518 109.206,409.127C142.803,428.732 179.489,438.534 219.269,438.534C259.049,438.534 295.739,428.732 329.334,409.127C362.927,389.525 389.523,362.921 409.129,329.329C428.732,295.733 438.532,259.045 438.532,219.267C438.533,179.485 428.732,142.795 409.133,109.203ZM387.434,290.213C377.725,312.769 364.738,332.183 348.465,348.458C332.194,364.727 312.776,377.718 290.22,387.423C267.665,397.135 244.018,401.987 219.274,401.987C194.53,401.987 170.883,397.134 148.326,387.423C125.772,377.718 106.355,364.727 90.081,348.458C73.812,332.183 60.822,312.771 51.111,290.213C41.404,267.661 36.549,244.007 36.549,219.267C36.549,194.523 41.403,170.876 51.111,148.319C60.818,125.765 73.808,106.351 90.081,90.074C106.355,73.805 125.772,60.814 148.326,51.104C170.88,41.4 194.531,36.546 219.274,36.546C244.014,36.546 267.669,41.397 290.22,51.104C312.776,60.811 332.19,73.802 348.465,90.074C364.737,106.348 377.725,125.762 387.434,148.319C397.143,170.873 401.998,194.52 401.998,219.267C402.002,244.011 397.143,267.664 387.434,290.213Z" style="fill:rgb(95,95,95);fill-rule:nonzero;"/>
                        <path d="M219.27,73.085C178.921,73.085 144.467,87.364 115.917,115.914C87.368,144.463 73.092,178.914 73.092,219.267C73.092,259.622 87.367,294.07 115.917,322.621C144.466,351.168 178.92,365.445 219.27,365.445C259.62,365.445 294.08,351.172 322.621,322.621C351.172,294.069 365.446,259.619 365.446,219.267C365.446,178.915 351.175,144.463 322.621,115.914C294.08,87.361 259.619,73.085 219.27,73.085ZM296.784,296.783C275.375,318.192 249.537,328.897 219.27,328.897C189.003,328.897 163.166,318.192 141.755,296.783C120.341,275.367 109.634,249.53 109.634,219.266C109.634,188.998 120.341,163.163 141.755,141.75C163.171,120.339 189.006,109.63 219.27,109.63C249.537,109.63 275.375,120.339 296.784,141.75C318.196,163.163 328.904,188.998 328.904,219.266C328.904,249.53 318.196,275.367 296.784,296.783Z" style="fill:rgb(95,95,95);fill-rule:nonzero;"/>
                        <path d="M219.27,146.178C199.093,146.178 181.869,153.317 167.592,167.589C153.32,181.866 146.181,199.09 146.181,219.267C146.181,239.442 153.316,256.669 167.592,270.94C181.869,285.217 199.096,292.356 219.27,292.356C239.449,292.356 256.676,285.217 270.946,270.94C285.22,256.669 292.359,239.442 292.359,219.267C292.359,199.09 285.22,181.866 270.946,167.589C256.676,153.316 239.449,146.178 219.27,146.178Z" style="fill:rgb(95,95,95);fill-rule:nonzero;"/>
                    </g>
                </g>
            </g>
        </g>
    </g>
</svg>
